<svg width="382" height="300" viewBox="0 0 382 300" fill="none" xmlns="http://www.w3.org/2000/svg">
<g opacity="0.08">
<path opacity="0.08" d="M21.5778 186.903C21.5778 186.903 32.316 244.772 86.7803 276.131C141.235 307.49 208.931 300.009 263.957 295.39C318.983 290.771 356.111 253.559 355.311 205.996C354.51 158.433 310.812 151.1 280.143 101.484C249.474 51.8787 248.83 34.1288 196.077 8.78761C143.324 -16.5444 71.6437 14.8883 40.9839 76.7598C10.3242 138.631 21.5778 186.903 21.5778 186.903Z" fill="#00B533"/>
<path opacity="0.7" d="M21.5778 186.903C21.5778 186.903 32.316 244.772 86.7803 276.131C141.235 307.49 208.931 300.009 263.957 295.39C318.983 290.771 356.111 253.559 355.311 205.996C354.51 158.433 310.812 151.1 280.143 101.484C249.474 51.8787 248.83 34.1288 196.077 8.78761C143.324 -16.5444 71.6437 14.8883 40.9839 76.7598C10.3242 138.631 21.5778 186.903 21.5778 186.903Z" fill="#00B533"/>
</g>
<path d="M357.454 30.0892C357.454 30.0892 357.454 24.3934 349.477 16.4064C341.499 8.41944 336.364 3.88306 336.364 3.88306C336.364 3.88306 332.362 16.9953 339.787 24.9823C345.235 30.5953 351.151 35.7482 357.454 40.3766V30.0892Z" fill="#00B533"/>
<path d="M345.879 65.7084C345.879 65.7084 345.879 60.0034 337.892 52.0257C329.905 44.0479 324.78 39.4839 324.78 39.4839C324.78 39.4839 320.795 52.5962 328.203 60.5739C333.65 66.1961 339.567 71.3398 345.879 75.9682V65.7084Z" fill="#00B533"/>
<path d="M357.003 39.8062C357.003 39.8062 357.592 34.138 366.38 27.0436C375.167 19.9491 380.697 15.9648 380.697 15.9648C380.697 15.9648 383.274 29.4268 375.066 36.5856C369.048 41.5913 362.625 46.0909 355.862 50.02L357.003 39.8062Z" fill="#00B533"/>
<path d="M342.962 81.8573C342.962 81.8573 344.167 76.2719 353.635 70.1437C363.095 64.0154 369.094 60.666 369.094 60.666C369.094 60.666 370.3 74.3304 361.337 80.5783C354.813 84.9306 347.949 88.7217 340.79 91.9238L342.962 81.8573Z" fill="#00B533"/>
<path d="M345.584 127.7C345.584 127.7 345.584 122.004 353.571 114.017C361.558 106.03 366.674 101.475 366.674 101.475C366.674 101.475 370.658 114.588 363.251 122.575C357.804 128.206 351.896 133.368 345.584 138.015V127.7Z" fill="#00B533"/>
<path d="M345.455 138.889C345.455 138.889 346.265 133.248 339.502 124.222C332.739 115.195 328.313 109.941 328.313 109.941C328.313 109.941 322.497 122.354 328.699 131.307C333.3 137.637 338.416 143.582 344.011 149.057L345.455 138.889Z" fill="#00B533"/>
<path d="M337.588 172.061C337.588 172.061 337.588 166.356 345.566 158.378C353.543 150.4 358.687 145.836 358.687 145.836C358.687 145.836 362.671 158.948 355.264 166.926C349.808 172.539 343.9 177.692 337.588 182.321V172.061Z" fill="#00B533"/>
<path d="M342.916 202.132C342.916 202.132 341.481 196.62 347.167 186.866C352.854 177.112 356.682 171.407 356.682 171.407C356.682 171.407 363.859 183.094 358.715 192.691C354.86 199.491 350.443 205.959 345.52 212.023L342.916 202.132Z" fill="#00B533"/>
<path d="M358.218 28.6445C357.813 34.5796 357.086 40.487 356.028 46.3392C352.872 62.6444 344.986 73.1711 341.83 87.8844C338.674 102.607 347.737 121.581 345.308 140.49C342.879 159.399 335.517 169.926 337.625 182.541C339.732 195.157 350.774 229.341 350.774 229.341" stroke="#2E353A" stroke-width="0.604269" stroke-linecap="round" stroke-linejoin="round"/>
<path d="M356.875 43.5972L365.478 36.9905" stroke="#2E353A" stroke-width="0.604269" stroke-linecap="round" stroke-linejoin="round"/>
<path d="M357.27 35.9966L353.672 29.5923" stroke="#2E353A" stroke-width="0.604269" stroke-linecap="round" stroke-linejoin="round"/>
<path d="M342.271 87.268C342.271 87.268 349.522 81.8667 356.865 76.4653" stroke="#2E353A" stroke-width="0.604269" stroke-linecap="round" stroke-linejoin="round"/>
<path d="M345.878 75.9684C345.878 75.9684 339.833 64.2087 333.07 56.4058" stroke="#2E353A" stroke-width="0.604269" stroke-linecap="round" stroke-linejoin="round"/>
<path d="M345.879 135.816C349.983 128.233 355.173 121.295 361.273 115.213" stroke="#2E353A" stroke-width="0.604269" stroke-linecap="round" stroke-linejoin="round"/>
<path d="M344.471 143.821C342.281 138.677 339.677 133.727 336.668 129.016C332.472 122.814 331.837 122.004 331.837 122.004" stroke="#2E353A" stroke-width="0.604269" stroke-linecap="round" stroke-linejoin="round"/>
<path d="M337.588 182.541C339.419 178.014 341.581 173.634 344.075 169.438C346.569 165.546 349.375 161.865 352.476 158.433" stroke="#2E353A" stroke-width="0.604269" stroke-linecap="round" stroke-linejoin="round"/>
<path d="M345.511 212.06C345.097 207.735 345.842 203.374 347.673 199.435C350.673 193.638 354.068 186.038 355.467 183.029" stroke="#2E353A" stroke-width="0.604269" stroke-linecap="round" stroke-linejoin="round"/>
<path d="M305.189 106.26C305.189 106.26 304.573 102.635 308.704 96.81C312.836 90.9854 315.569 87.5256 315.569 87.5256C315.569 87.5256 319.498 95.3102 315.716 101.116C312.909 105.23 309.753 109.103 306.303 112.692L305.189 106.26Z" fill="#00B533"/>
<path d="M316.314 127.332C316.314 127.332 315.697 123.706 319.829 117.882C323.96 112.057 326.693 108.588 326.693 108.588C326.693 108.588 330.622 116.382 326.84 122.197C324.025 126.31 320.878 130.175 317.427 133.764L316.314 127.332Z" fill="#00B533"/>
<path d="M306.551 112.306C306.551 112.306 305.557 108.809 299.3 105.322C293.043 101.825 289.086 99.9202 289.086 99.9202C289.086 99.9202 288.93 108.643 294.847 112.232C299.162 114.726 303.68 116.842 308.345 118.572L306.551 112.306Z" fill="#00B533"/>
<path d="M319.893 137.15C319.893 137.15 318.54 133.782 311.934 130.966C305.327 128.15 301.214 126.678 301.214 126.678C301.214 126.678 301.978 135.365 308.244 138.327C312.799 140.333 317.51 141.944 322.332 143.158L319.893 137.15Z" fill="#00B533"/>
<path d="M323.233 166.19C323.233 166.19 322.608 162.565 316.728 158.47C310.857 154.375 307.149 152.029 307.149 152.029C307.149 152.029 306.072 160.678 311.584 164.883C315.614 167.81 319.884 170.404 324.347 172.622L323.233 166.19Z" fill="#00B533"/>
<path d="M324.522 173.183C324.522 173.183 323.399 169.724 326.657 163.338C329.923 156.942 332.132 153.161 332.132 153.161C332.132 153.161 337.119 160.31 334.211 166.613C332.012 171.076 329.445 175.355 326.537 179.394L324.522 173.183Z" fill="#00B533"/>
<path d="M334.542 202.067C334.542 202.067 334.956 198.442 340.588 193.997C346.219 189.553 349.78 187.022 349.78 187.022C349.78 187.022 351.353 195.598 346.081 200.107C342.225 203.263 338.122 206.097 333.788 208.563L334.542 202.067Z" fill="#00B533"/>
<path d="M333.051 193.123C333.051 193.123 332.435 189.498 326.564 185.412C320.694 181.327 316.985 178.971 316.985 178.971C316.985 178.971 315.909 187.62 321.421 191.826C325.451 194.752 329.711 197.337 334.174 199.564L333.051 193.123Z" fill="#00B533"/>
<path d="M332.978 212.557C332.978 212.557 333.282 208.931 328.653 203.456C324.025 197.982 321.016 194.789 321.016 194.789C321.016 194.789 317.777 202.895 322.047 208.352C325.203 212.207 328.672 215.796 332.426 219.072L332.978 212.557Z" fill="#00B533"/>
<path d="M304.573 105.386C305.475 109.067 306.569 112.701 307.876 116.262C311.621 126.136 317.713 131.877 321.292 140.766C324.871 149.655 321.292 162.519 324.816 174.131C328.34 185.744 334.147 191.522 334.193 199.666C334.239 207.809 331.037 230.445 331.037 230.445" stroke="#2E353A" stroke-width="0.604269" stroke-linecap="round" stroke-linejoin="round"/>
<path d="M307.011 114.661L300.91 111.459" stroke="#2E353A" stroke-width="0.604269" stroke-linecap="round" stroke-linejoin="round"/>
<path d="M305.935 109.95L307.508 105.533" stroke="#2E353A" stroke-width="0.604269" stroke-linecap="round" stroke-linejoin="round"/>
<path d="M320.906 140.435C320.906 140.435 315.808 137.84 310.572 135.254" stroke="#2E353A" stroke-width="0.604269" stroke-linecap="round" stroke-linejoin="round"/>
<path d="M317.427 133.764C318.927 129.025 320.905 124.452 323.335 120.108" stroke="#2E353A" stroke-width="0.604269" stroke-linecap="round" stroke-linejoin="round"/>
<path d="M323.933 171.297C320.528 166.99 316.516 163.199 312.026 160.043" stroke="#2E353A" stroke-width="0.604269" stroke-linecap="round" stroke-linejoin="round"/>
<path d="M325.672 176.174C326.491 172.714 327.586 169.319 328.957 166.034C330.917 161.7 331.202 161.129 331.202 161.129" stroke="#2E353A" stroke-width="0.604269" stroke-linecap="round" stroke-linejoin="round"/>
<path d="M333.917 205.876C335.904 203.42 338.103 201.138 340.486 199.058C342.005 197.935 343.431 196.693 344.756 195.341" stroke="#2E353A" stroke-width="0.604269" stroke-linecap="round" stroke-linejoin="round"/>
<path d="M334.193 199.647C332.564 197.006 330.724 194.494 328.708 192.129C326.721 189.939 324.559 187.915 322.24 186.084" stroke="#2E353A" stroke-width="0.604269" stroke-linecap="round" stroke-linejoin="round"/>
<path d="M332.426 219.072C332.223 216.311 331.285 213.661 329.711 211.388C327.199 208.076 324.236 203.677 323.04 201.948" stroke="#2E353A" stroke-width="0.604269" stroke-linecap="round" stroke-linejoin="round"/>
<path d="M314.713 226.525H366.932V266.11C366.932 268.116 365.312 269.736 363.307 269.736H318.403C316.397 269.736 314.777 268.116 314.777 266.11V226.525H314.713V226.525Z" fill="#2E353A"/>
<path d="M297.432 186.194C297.432 186.194 302.254 174.131 299.227 149.103C297.874 138.134 298.84 115.59 283.832 114.854C267.822 114.081 261.279 115.664 245.186 115.848C187.299 116.501 144.732 122.289 109.435 118.875C81.0661 116.115 56.5899 111.643 46.5049 121.728C36.42 131.813 37.3033 153.308 38.2235 157.467C39.1436 161.626 45.6768 190.142 45.6768 190.142L295.96 189.01L297.432 186.194Z" fill="#979797" stroke="#2E353A" stroke-width="0.92016" stroke-linecap="round" stroke-linejoin="round"/>
<path d="M48.9431 178.99C48.9431 178.99 44.1215 159.666 36.2265 154.43C28.3316 149.195 18.0258 154.863 9.4775 163.2C0.929213 171.536 -1.50921 181.4 2.015 197.871C5.53921 214.342 15.8174 238.653 18.8999 249.621C21.9825 260.589 21.9641 266.285 32.2698 269.791C42.5756 273.297 52.4489 273.518 58.8073 264.748C65.1656 255.979 63.4081 215.63 58.3656 200.503C53.3231 185.375 48.9431 178.99 48.9431 178.99Z" fill="#AFAFAF" stroke="#2E353A" stroke-width="0.92016" stroke-linecap="round" stroke-linejoin="round"/>
<path d="M48.0231 264.068C43.6615 255.731 30.5401 196.307 30.7241 188.2C30.9081 180.094 24.3658 166.485 16.2592 165.39C9.56962 164.469 4.22349 170.911 2.5488 173.156C-0.0644517 179.597 -0.211677 187.391 2.00591 197.844C5.51172 214.287 5.07004 239.14 8.14337 250.099C11.2167 261.059 11.2167 266.764 21.5133 270.279C28.2949 272.579 45.6399 272.956 51.1608 270.794C50.2775 268.475 49.2285 266.23 48.0231 264.068Z" fill="#888888" stroke="#2E353A" stroke-width="0.92016" stroke-linecap="round" stroke-linejoin="round"/>
<path d="M284.237 178.621C284.237 178.621 289.335 159.298 297.671 154.062C306.008 148.827 316.893 154.495 325.92 162.831C334.947 171.168 337.505 181.032 333.797 197.475C330.089 213.919 319.203 238.257 315.964 249.225C312.725 260.194 312.725 265.889 301.84 269.395C290.954 272.901 280.529 273.076 273.812 264.353C267.094 255.63 268.953 215.234 274.281 200.107C279.609 184.98 284.237 178.621 284.237 178.621Z" fill="#AFAFAF" stroke="#2E353A" stroke-width="0.92016" stroke-linecap="round" stroke-linejoin="round"/>
<path d="M285.167 264.914C289.768 256.476 303.69 196.325 303.46 188.108C303.229 179.891 310.177 166.135 318.743 165.021C325.81 164.101 331.451 170.542 333.217 172.88C335.978 179.394 336.153 187.289 333.797 197.871C330.117 214.526 324.43 239.168 321.182 250.265C317.934 261.362 317.943 267.132 307.057 270.683C299.899 273.021 287.734 273.913 281.873 271.723C282.811 269.377 283.915 267.095 285.167 264.914Z" fill="#888888" stroke="#2E353A" stroke-width="0.92016" stroke-linecap="round" stroke-linejoin="round"/>
<path d="M303.569 216.017C303.569 216.017 298.049 250.063 294.58 261.464C291.111 272.864 292.169 272.864 286.252 273.324C280.335 273.784 55.7245 273.131 48.7128 272.036C41.7012 270.941 37.9654 265.678 35.987 258.234C34.0087 250.79 32.0396 216.946 32.0396 216.946L294.147 216.026L303.569 216.017Z" fill="#979797" stroke="#2E353A" stroke-width="0.92016" stroke-linecap="round" stroke-linejoin="round"/>
<path d="M32.0584 222.311C33.0798 224.768 35.3157 226.516 37.9474 226.912C42.5482 227.758 161.304 229.019 165.095 229.019C168.886 229.019 265.715 229.019 281.293 227.758C296.871 226.497 304.803 224.427 303.57 215.989C302.337 207.551 302.769 214.287 302.769 214.287L29.4819 217.655L32.0584 222.311Z" fill="#2E353A"/>
<path d="M49.5874 177.895C49.5874 177.895 32.7025 189.295 27.8808 194.559C23.0592 199.822 25.6817 203.981 26.1233 207.929C26.565 211.876 28.5342 220.645 34.2391 223.719C39.9441 226.792 110.76 225.476 152.02 226.792C193.28 228.108 281.9 226.534 292.868 223.903C303.837 221.271 306.441 207.68 307.094 199.978C307.747 192.277 299.88 181.575 295.5 180.241C291.12 178.907 254.645 178.741 214.075 179.615C173.505 180.489 154.881 184.069 108.616 183.149C62.35 182.229 60.114 175.916 49.5874 177.895Z" fill="#AFAFAF"/>
<path d="M26.1233 207.929C26.5649 211.876 28.5341 220.645 34.2391 223.718C39.9441 226.792 110.76 225.476 152.02 226.792C193.279 228.108 281.9 226.534 292.868 223.902C303.837 221.271 310.407 210.753 311.069 203.079C311.133 201.92 311.005 200.76 310.683 199.647C309.137 201.193 306.155 199.518 302.64 199.012C294.828 197.89 212.621 203.006 151.09 203.006C84.2865 203.006 62.5156 203.006 29.4542 196.647C24.5314 195.727 27.9176 194.559 27.9176 194.559C23.0499 199.822 25.6816 203.981 26.1233 207.929Z" fill="#979797"/>
<path d="M49.5874 177.895C49.5874 177.895 32.7025 189.295 27.8808 194.559C23.0592 199.822 25.6817 203.981 26.1233 207.929C26.565 211.876 28.5342 220.645 34.2391 223.719C39.9441 226.792 110.76 225.476 152.02 226.792C193.28 228.108 281.9 226.534 292.868 223.903C303.837 221.271 306.441 207.68 307.094 199.978C307.747 192.277 299.88 181.575 295.5 180.241C291.12 178.907 254.645 178.741 214.075 179.615C173.505 180.489 154.881 184.069 108.616 183.149C62.35 182.229 60.114 175.916 49.5874 177.895Z" stroke="#2E353A" stroke-width="0.92016" stroke-linecap="round" stroke-linejoin="round"/>
<path d="M168.941 119.786L168.564 181.916C168.564 181.916 165.85 198.893 166.19 201.239C166.531 203.585 166.531 226.7 166.531 226.7" stroke="#2E353A" stroke-width="0.92016" stroke-linecap="round" stroke-linejoin="round"/>
<path d="M58.4482 148.348C58.4482 148.348 59.9205 148.164 63.049 144.484C66.1776 140.803 69.6742 138.042 72.9776 138.236C76.2809 138.429 70.2171 140.812 70.2171 140.812C70.2171 140.812 75.9129 139.34 79.9616 141.364C84.0103 143.389 78.3053 145.22 78.3053 145.22C78.3053 145.22 84.9212 147.244 84.5532 150.004C84.1851 152.765 82.8969 152.029 74.9927 152.029C67.0885 152.029 63.0306 154.044 59.7365 152.949C56.4423 151.854 54.2155 151.477 58.4482 148.348Z" fill="#2E353A" stroke="#2E353A" stroke-width="0.92016" stroke-linecap="round" stroke-linejoin="round"/>
<path d="M47.4343 112.664C47.4343 112.664 52.7712 115.48 54.5103 118.296C56.2494 121.111 54.5103 123.577 58.5314 124.037C60.7766 124.304 63.7395 124.258 63.7395 126.421C63.7763 127.442 63.7027 128.454 63.5187 129.457C63.5187 129.457 65.4694 137.26 65.2486 138.999C65.0277 140.738 57.6664 142.901 57.6664 142.901C57.4364 144.566 57.8229 146.259 58.7522 147.667C60.2705 149.618 67.4201 155.47 68.5059 156.335C69.5917 157.2 47.4803 159.804 47.4803 159.804C47.4803 159.804 42.5022 149.397 35.7759 145.716C29.0495 142.036 25.8013 142.247 25.5897 138.567C25.378 134.886 31.6535 121.443 37.5057 117.099C43.358 112.756 47.4343 112.664 47.4343 112.664Z" fill="white" stroke="#2E353A" stroke-width="0.92016" stroke-linecap="round" stroke-linejoin="round"/>
<path d="M55.0533 126.246C54.7312 126.412 54.3908 126.568 54.0503 126.697C54.0595 126.761 54.0779 126.826 54.1055 126.881C54.4092 127.626 54.8876 128.132 55.1821 128.022C55.4765 127.912 55.4581 127.203 55.1821 126.458C55.1453 126.384 55.0993 126.311 55.0533 126.246Z" fill="#2E353A"/>
<path d="M53.2588 128.16C54.2066 128.224 55.1635 128.031 56.0193 127.617Z" fill="white"/>
<path d="M53.2588 128.16C54.2066 128.224 55.1635 128.031 56.0193 127.617" stroke="#2E353A" stroke-width="0.46008" stroke-linecap="round" stroke-linejoin="round"/>
<path d="M57.6663 142.901C54.7034 143.573 51.6577 143.766 48.6304 143.471C48.6304 143.471 55.0163 147.391 57.832 147.106L57.6663 142.901Z" fill="#2E353A" stroke="#2E353A" stroke-width="0.92016" stroke-linecap="round" stroke-linejoin="round"/>
<path d="M53.8477 124.019L55.0623 125.988C54.0409 126.817 52.8631 127.405 51.5933 127.728" fill="white"/>
<path d="M53.8477 124.019L55.0623 125.988C54.0409 126.817 52.8631 127.405 51.5933 127.728" stroke="#2E353A" stroke-width="0.92016" stroke-linecap="round" stroke-linejoin="round"/>
<path d="M56.5439 133.405C56.5439 133.405 57.3813 135.199 60.8595 133.883Z" fill="white"/>
<path d="M56.5439 133.405C56.5439 133.405 57.3813 135.199 60.8595 133.883" stroke="#2E353A" stroke-width="0.92016" stroke-linecap="round" stroke-linejoin="round"/>
<path d="M52.2282 120.698C52.2282 120.698 49.5965 120.219 48.2715 123.338Z" fill="white"/>
<path d="M52.2282 120.698C52.2282 120.698 49.5965 120.219 48.2715 123.338" stroke="#2E353A" stroke-width="0.92016" stroke-linecap="round" stroke-linejoin="round"/>
<path d="M50.1944 110.87C50.1944 110.87 48.3541 121.295 46.5138 127.654C44.6734 134.012 42.3178 137.84 41.7197 140.242C41.1216 142.643 44.1122 148.624 43.1552 151.145C42.1982 153.667 41.3149 149.949 35.7939 146.83C30.273 143.711 25.7274 140.72 23.0865 138.917C11.5569 131.049 31.1931 109.913 39.9898 108.947C48.7866 107.981 50.6729 108.229 50.1944 110.87Z" fill="#2E353A"/>
<path d="M50.1944 110.87C50.1944 110.87 48.3541 121.295 46.5138 127.654C44.6734 134.012 42.3178 137.84 41.7197 140.242C41.1216 142.643 44.1122 148.624 43.1552 151.145C42.1982 153.667 41.3149 149.949 35.7939 146.83C30.273 143.711 25.7274 140.72 23.0865 138.917C11.5569 131.049 31.1931 109.913 39.9898 108.947C48.7866 107.981 50.6729 108.229 50.1944 110.87Z" stroke="#2E353A" stroke-width="0.92016" stroke-linecap="round" stroke-linejoin="round"/>
<path d="M44.8025 137.362C44.8025 137.362 40.7262 133.764 38.205 134.84C35.6838 135.917 37.7265 140.481 39.2816 140.84C40.8367 141.199 42.5205 141.558 44.3149 140.72" fill="white"/>
<path d="M44.8025 137.362C44.8025 137.362 40.7262 133.764 38.205 134.84C35.6838 135.917 37.7265 140.481 39.2816 140.84C40.8367 141.199 42.5205 141.558 44.3149 140.72" stroke="#2E353A" stroke-width="0.92016" stroke-linecap="round" stroke-linejoin="round"/>
<path opacity="0.3" d="M16.5629 160.614C16.5629 160.614 28.2397 166.126 30.5401 172.107C32.8405 178.088 33.3006 184.529 37.4413 186.829C41.582 189.13 48.9433 193.27 57.6848 195.111C62.8193 196.215 68.0734 196.675 73.3275 196.491C73.3275 196.491 89.4303 197.411 101.392 197.411C113.354 197.411 131.758 193.731 131.758 193.731C131.758 193.731 145.1 195.111 153.381 178.548C161.663 161.985 192.488 138.981 194.789 121.498C194.789 121.498 157.522 139.441 152.001 147.263C146.48 155.084 109.214 175.327 89.8904 175.327C70.5671 175.327 48.0231 160.605 35.601 152.323C23.1788 144.042 15.9372 152.351 16.5629 160.614Z" fill="black"/>
<path d="M58.2827 176.984C58.2827 176.984 50.7282 161.875 45.1612 153.602C39.5942 145.33 34.5517 141.373 28.4327 138.144C22.3136 134.914 18.909 133.828 15.8173 132.383C12.7256 130.939 11.8606 131.666 11.5017 137.96C11.1429 144.253 9.66143 155.222 16.535 160.614C23.4086 166.006 26.4267 165.831 30.5675 167.81C34.7082 169.788 36.8613 175.171 40.2751 182.192C43.6889 189.213 54.2984 189.203 58.4391 188.844C62.5798 188.486 60.8039 181.115 58.2827 176.984Z" fill="white" stroke="#2E353A" stroke-width="0.92016" stroke-linecap="round" stroke-linejoin="round"/>
<path d="M129.669 155.102C129.669 155.102 138.539 128.252 141.898 125.657C145.257 123.062 175.925 114.137 187.694 111.468C199.463 108.8 214.784 97.3253 216.468 95.6414C218.152 93.9575 221.989 92.0436 220.783 96.8376C219.578 101.632 218.382 104.033 215.98 106.959C213.578 109.885 215.06 112.232 213.588 114.873C212.115 117.514 209.511 117.504 205.435 115.112C201.359 112.72 199.684 112.71 194.89 116.308C190.096 119.906 181.216 128.537 171.628 131.408C162.04 134.279 158.921 134.767 158.921 134.767C158.921 134.767 154.605 155.148 148.854 164.018C143.103 172.889 140.941 176.965 131.592 175.29C122.243 173.616 126.32 159.224 126.798 157.807C127.277 156.39 129.669 155.102 129.669 155.102Z" fill="#2E353A" stroke="#2E353A" stroke-width="0.92016" stroke-linecap="round" stroke-linejoin="round"/>
<path d="M213.588 114.827C215.023 112.186 213.588 109.784 215.98 106.913C218.372 104.043 219.578 101.641 220.783 96.7917C221.989 91.9425 218.142 93.9208 216.468 95.5955C209.797 101.052 202.435 105.598 194.568 109.122C195.782 110.76 196.758 112.554 197.476 114.459C200.466 112.729 202.196 113.106 205.435 115.02C209.511 117.458 212.152 117.458 213.588 114.827Z" fill="white" stroke="#2E353A" stroke-width="0.92016" stroke-linecap="round" stroke-linejoin="round"/>
<path d="M216.467 95.6414C216.228 95.8714 215.98 96.0922 215.713 96.2947C216.872 97.6473 218.473 98.5583 220.231 98.8619C220.415 98.2362 220.599 97.5645 220.783 96.8376C221.979 92.0527 218.142 93.9667 216.467 95.6414Z" fill="#A5A5A5" stroke="#2E353A" stroke-width="0.92016" stroke-linecap="round" stroke-linejoin="round"/>
<path d="M111.45 190.823C111.45 190.823 136.625 195.424 145.974 192.028C155.323 188.633 159.16 178.355 161.801 170.929C164.442 163.503 164.92 149.591 166.356 145.514C167.791 141.438 168.27 140.242 168.27 140.242C168.27 140.242 179.311 135.199 185.753 131.85C192.194 128.5 197.503 115.545 201.34 112.665C205.177 109.784 205.656 113.585 207.781 111.468C209.907 109.352 213.771 100.675 214.489 95.1631C215.207 89.6513 211.904 86.532 210.468 86.532C209.033 86.532 209.272 89.4121 206.87 92.9731C204.469 96.5341 200.88 103.757 197.282 106.159C193.684 108.561 176.661 118.379 170.193 121.977C163.724 125.574 155.323 127.497 151.007 134.923C146.692 142.349 139.505 157.927 138.539 159.62C137.803 160.862 137.003 162.059 136.147 163.218C133.561 164.23 130.911 165.114 128.233 165.85C123.2 167.294 117.192 166.577 114.33 169.448C111.468 172.318 111.45 190.823 111.45 190.823Z" fill="#2E353A" stroke="#2E353A" stroke-width="0.92016" stroke-linecap="round" stroke-linejoin="round"/>
<path d="M210.468 86.532C209.033 86.532 209.272 89.4121 206.87 92.9731C204.469 96.5341 200.88 103.757 197.282 106.159C196.555 106.637 195.286 107.42 193.675 108.395C195.516 109.186 197.356 111.211 198.69 115.683C199.426 114.542 200.328 113.511 201.359 112.628C205.196 109.748 205.674 113.548 207.8 111.432C209.925 109.315 213.79 100.638 214.508 95.1263C215.225 89.6145 211.904 86.532 210.468 86.532Z" fill="white" stroke="#2E353A" stroke-width="0.92016" stroke-linecap="round" stroke-linejoin="round"/>
<path d="M210.468 86.532C209.309 86.532 209.235 88.3723 208.002 91.004C210.358 91.8873 212.575 93.1019 214.59 94.611C215.023 89.4489 211.857 86.532 210.468 86.532Z" fill="#A5A5A5" stroke="#2E353A" stroke-width="0.92016" stroke-linecap="round" stroke-linejoin="round"/>
<path d="M96.3867 148.873C94.8224 149.683 93.3962 150.722 92.1447 151.965C90.4793 154.412 88.9518 156.952 87.5439 159.556L92.6968 164.966L96.4235 151.965L98.3558 150.548L96.3867 148.873Z" fill="#76B63D" stroke="#2E353A" stroke-width="0.92016" stroke-linecap="round" stroke-linejoin="round"/>
<path d="M49.6518 153.786C49.6518 153.786 62.4236 151.265 70.3278 151.09C78.232 150.916 80.7624 149.83 83.4585 152.342C86.1545 154.854 93.3502 162.592 94.6108 163.853C95.8714 165.114 118.535 162.592 118.535 162.592C118.535 162.592 120.688 167.984 119.253 176.984C118.443 182.275 115.995 187.188 112.241 191.007C112.241 191.007 97.1228 193.215 87.0655 192.442C67.8157 190.97 60.7121 184.023 55.8537 178.088C50.9952 172.153 47.1029 159.353 46.9557 157.016C46.8085 154.679 49.6518 153.786 49.6518 153.786Z" fill="#00B533" stroke="#2E353A" stroke-width="0.92016" stroke-linecap="round" stroke-linejoin="round"/>
<path d="M97.7856 152.94C97.7856 152.94 88.4368 154.145 87.4706 156.777C86.5044 159.409 91.3077 177.876 92.7523 178.861C94.197 179.845 97.7856 177.416 97.7856 177.416C104.632 178.198 111.533 178.355 118.406 177.895C130.635 177.177 134.702 171.454 136.147 171.187C137.592 170.92 141.42 169.981 141.18 168.785C140.941 167.589 137.343 156.078 132.071 152.001C126.798 147.925 118.646 146.968 111.211 149.37C106.803 150.787 102.322 151.974 97.7856 152.94Z" fill="white" stroke="#2E353A" stroke-width="0.92016" stroke-linecap="round" stroke-linejoin="round"/>
<path d="M94.0679 152.7L96.0554 161.939L124.994 158.277L119.243 149.83L94.0679 152.7Z" fill="white" stroke="#2E353A" stroke-width="0.92016" stroke-linecap="round" stroke-linejoin="round"/>
<path d="M110.125 153.271L110.64 154.578L112.434 154.329L111.946 153.023L110.125 153.271Z" fill="#2E353A"/>
<path d="M112.591 154.771L110.815 155.019L111.441 156.602L113.189 156.363L112.591 154.771Z" fill="#2E353A"/>
<path d="M101.769 157.955L103.242 157.752L102.726 156.151L101.282 156.354L101.769 157.955Z" fill="#2E353A"/>
<path d="M112.416 152.958L112.895 154.265L114.67 154.016L114.192 152.719L112.416 152.958Z" fill="#2E353A"/>
<path d="M102.598 154.292L103.039 155.645L105.11 155.351L104.64 154.016L102.598 154.292Z" fill="#2E353A"/>
<path d="M107.64 153.611L108.165 154.927L110.171 154.642L109.655 153.335L107.64 153.611Z" fill="#2E353A"/>
<path d="M105.11 153.952L105.57 155.286L107.696 154.992L107.171 153.667L105.11 153.952Z" fill="#2E353A"/>
<path d="M110.971 156.676L110.345 155.084L108.339 155.369L108.965 156.952L110.971 156.676Z" fill="#2E353A"/>
<path d="M113.814 156.74L114.109 157.531L115.876 157.311L115.572 156.492L113.814 156.74Z" fill="#2E353A"/>
<path d="M116.998 154.155L115.296 154.394L115.876 155.986L117.661 155.737L116.998 154.155Z" fill="#2E353A"/>
<path d="M113.06 154.706L113.649 156.298L115.416 156.05L114.827 154.458L113.06 154.706Z" fill="#2E353A"/>
<path d="M118.682 156.97L120.946 156.694L120.467 155.811L118.323 156.114L118.682 156.97Z" fill="#2E353A"/>
<path d="M103.858 158.13L104.061 158.755L106.205 158.489L105.975 157.835L103.858 158.13Z" fill="#2E353A"/>
<path d="M105.266 155.792L103.187 156.087L103.711 157.688L105.818 157.394L105.266 155.792Z" fill="#2E353A"/>
<path d="M107.87 155.434L105.726 155.728L106.287 157.329L108.496 157.016L107.87 155.434Z" fill="#2E353A"/>
<path d="M109.14 157.393L109.416 158.102L111.431 157.853L111.146 157.108L109.14 157.393Z" fill="#2E353A"/>
<path d="M114.505 152.213L116.087 151.992L115.867 151.477L114.312 151.698L114.505 152.213Z" fill="#2E353A"/>
<path d="M104.953 153.51L106.996 153.234L106.821 152.783L104.806 153.078L104.953 153.51Z" fill="#2E353A"/>
<path d="M109.95 152.829L111.781 152.581L111.597 152.093L109.756 152.36L109.95 152.829Z" fill="#2E353A"/>
<path d="M107.465 153.17L109.481 152.894L109.296 152.425L107.291 152.719L107.465 153.17Z" fill="#2E353A"/>
<path d="M102.451 153.851L104.484 153.575L104.337 153.142L102.312 153.437L102.451 153.851Z" fill="#2E353A"/>
<path d="M101.99 153.915L101.852 153.501L100.472 153.704L100.592 154.099L101.99 153.915Z" fill="#2E353A"/>
<path d="M103.592 158.811L103.389 158.194L101.898 158.406L102.082 158.995L103.592 158.811Z" fill="#2E353A"/>
<path d="M116.557 151.928L118.241 151.707L117.955 151.173L116.336 151.403L116.557 151.928Z" fill="#2E353A"/>
<path d="M101.144 155.912L102.58 155.71L102.138 154.357L100.73 154.55L101.144 155.912Z" fill="#2E353A"/>
<path d="M117.845 156.179L116.041 156.427L116.335 157.255L118.203 157.025L117.845 156.179Z" fill="#2E353A"/>
<path d="M112.25 152.517L114.035 152.277L113.851 151.771L112.066 152.029L112.25 152.517Z" fill="#2E353A"/>
<path d="M108.671 157.458L106.435 157.771L106.674 158.433L108.947 158.157L108.671 157.458Z" fill="#2E353A"/>
<path d="M113.354 156.805L111.615 157.044L111.91 157.798L113.64 157.587L113.354 156.805Z" fill="#2E353A"/>
<path d="M114.661 152.655L115.13 153.943L116.805 153.713L116.271 152.434L114.661 152.655Z" fill="#2E353A"/>
<path d="M119.39 153.814L117.467 154.081L118.13 155.673L120.237 155.378L119.39 153.814Z" fill="#2E353A"/>
<path d="M117.284 153.648L119.152 153.382L118.48 152.139L116.741 152.369L117.284 153.648Z" fill="#2E353A"/>
<path d="M124.994 158.277L126.614 131.666L120.32 128.068L119.243 149.83L124.994 158.277Z" fill="white" stroke="#2E353A" stroke-width="0.92016" stroke-linecap="round" stroke-linejoin="round"/>
<path d="M121.323 130.635L120.486 149.563L123.706 154.164L124.857 133L121.323 130.635Z" fill="#00B533" stroke="#2E353A" stroke-width="0.92016" stroke-linecap="round" stroke-linejoin="round"/>
<path d="M108.487 145.772C109.287 145.532 110.152 145.744 110.75 146.333C112.002 147.336 114.716 149.581 114.376 150.142C114.035 150.704 113.584 150.704 112.904 150.032C112.223 149.36 108.487 145.772 108.487 145.772Z" fill="white" stroke="#2E353A" stroke-width="0.92016" stroke-linecap="round" stroke-linejoin="round"/>
<path d="M105.652 145.781C105.652 145.781 107.714 145.008 108.486 145.781C109.259 146.554 114.283 150.547 113.897 151.302C113.511 152.057 112.866 151.431 112.057 151.431C111.247 151.431 105.652 145.781 105.652 145.781Z" fill="white" stroke="#2E353A" stroke-width="0.92016" stroke-linecap="round" stroke-linejoin="round"/>
<path d="M95.3558 151.32C95.3558 151.32 93.948 150.29 96.9017 148.486C99.8554 146.683 103.472 145.137 104.76 145.266C106.048 145.395 112.121 151.449 112.121 151.449C112.268 151.863 112.048 152.323 111.633 152.471C111.624 152.471 111.615 152.48 111.606 152.48C110.833 152.738 105.938 149.13 105.045 149.13C104.153 149.13 101.18 150.971 100.279 151.192C99.3769 151.412 97.2882 152.995 95.3558 151.32Z" fill="white" stroke="#2E353A" stroke-width="0.92016" stroke-linecap="round" stroke-linejoin="round"/>
<path d="M100.472 149.388C100.472 149.388 107.291 151.964 107.677 151.964C108.063 151.964 107.548 152.995 106.389 153.124C105.229 153.253 102.404 151.707 101.374 152.204C100.343 152.701 98.2638 152.553 96.7271 152.507C95.1904 152.461 95.1904 150.667 95.1904 150.667" fill="white"/>
<path d="M100.472 149.388C100.472 149.388 107.291 151.964 107.677 151.964C108.063 151.964 107.548 152.995 106.389 153.124C105.229 153.253 102.404 151.707 101.374 152.204C100.343 152.701 98.2638 152.553 96.7271 152.507C95.1904 152.461 95.1904 150.667 95.1904 150.667" stroke="#2E353A" stroke-width="0.92016" stroke-linecap="round" stroke-linejoin="round"/>
<path d="M59.1847 154.504C59.1847 154.504 53.2497 150.363 47.3146 152.167C41.3796 153.97 42.8243 162.059 47.1398 170.506C51.4554 178.953 68.8924 195.497 71.7725 197.301C74.6526 199.104 77.3487 197.301 79.5018 193.887C81.655 190.473 86.5135 170.147 87.9581 166.908C89.4028 163.669 90.1113 161.7 90.1113 161.7C91.7124 161.295 93.2306 160.623 94.6109 159.721L98.7424 156.482C98.7424 156.482 105.183 153.786 105.754 153.427C106.324 153.069 105.579 152.507 104.834 152.507H96.7916C93.1938 152.507 88.5102 156.464 86.8999 158.258C85.2896 160.053 73.9533 180.913 73.9533 180.913L59.3595 160.973" fill="#00B533"/>
<path d="M59.1847 154.504C59.1847 154.504 53.2497 150.363 47.3146 152.167C41.3796 153.97 42.8243 162.059 47.1398 170.506C51.4554 178.953 68.8924 195.497 71.7725 197.301C74.6526 199.104 77.3487 197.301 79.5018 193.887C81.655 190.473 86.5135 170.147 87.9581 166.908C89.4028 163.669 90.1113 161.7 90.1113 161.7C91.7124 161.295 93.2306 160.623 94.6109 159.721L98.7424 156.482C98.7424 156.482 105.183 153.786 105.754 153.427C106.324 153.069 105.579 152.507 104.834 152.507H96.7916C93.1938 152.507 88.5102 156.464 86.8999 158.258C85.2896 160.053 73.9533 180.913 73.9533 180.913L59.3595 160.973" stroke="#2E353A" stroke-width="0.92016" stroke-linecap="round" stroke-linejoin="round"/>
<path d="M98.7423 156.464C98.7423 156.464 105.183 153.768 105.754 153.409C106.324 153.05 105.579 152.489 104.834 152.489H96.7916C93.1938 152.489 88.5101 156.446 86.8999 158.24C85.3356 160.54 83.8817 162.924 82.5659 165.371L87.82 167.267C87.8752 167.12 87.9304 166.982 87.9857 166.871C89.4211 163.632 90.1388 161.663 90.1388 161.663C91.7399 161.258 93.2582 160.586 94.6384 159.685L98.7423 156.464Z" fill="white" stroke="#2E353A" stroke-width="0.92016" stroke-linecap="round" stroke-linejoin="round"/>
</svg>
